<?xml version="1.0" encoding="utf-8"?>
<!-- Generator: Adobe Illustrator 15.0.0, SVG Export Plug-In . SVG Version: 6.00 Build 0)  -->
<!DOCTYPE svg PUBLIC "-//W3C//DTD SVG 1.1//EN" "http://www.w3.org/Graphics/SVG/1.1/DTD/svg11.dtd">
<svg version="1.1" id="Calque_1" xmlns="http://www.w3.org/2000/svg" xmlns:xlink="http://www.w3.org/1999/xlink" x="0px" y="0px"
	 width="350.679px" height="89.995px" viewBox="14.115 2.737 350.679 89.995" enable-background="new 14.115 2.737 350.679 89.995"
	 xml:space="preserve">
<path display="none" fill="#385E6A" d="M90.415,82.105V50.382h-7.729v39.571c-8.743,7.104-19.863,11.359-31.991,11.359
	C22.685,101.312,0,78.625,0,50.621C0,22.61,22.687-0.073,50.695-0.073s50.692,22.685,50.692,50.694
	C101.388,62.511,97.286,73.453,90.415,82.105z"/>
<path display="none" fill="#FFFFFF" d="M54.862,94.388c-3.13,0-5.979-0.5-8.548-1.513c-2.571-0.998-4.777-2.461-6.62-4.358
	c-1.843-1.912-3.266-4.252-4.272-7.039c-1.005-2.781-1.51-5.976-1.51-9.57c0-3.512,0.492-6.658,1.479-9.441
	c0.979-2.778,2.361-5.139,4.142-7.063c1.776-1.93,3.885-3.396,6.329-4.402c2.438-1.011,5.14-1.51,8.096-1.51
	c3.08,0,5.864,0.499,8.353,1.51c2.48,1.005,4.604,2.462,6.356,4.367s3.104,4.246,4.048,7.025c0.943,2.78,1.411,5.938,1.411,9.5
	v1.858h-32.4c0.171,2.529,0.624,4.73,1.354,6.576c0.73,1.851,1.681,3.375,2.84,4.576c1.161,1.203,2.511,2.086,4.042,2.648
	c1.526,0.557,3.152,0.836,4.872,0.836c1.289,0,2.563-0.162,3.812-0.488c1.248-0.324,2.369-0.816,3.357-1.486
	c0.989-0.668,1.797-1.496,2.421-2.487c0.629-0.994,0.979-2.14,1.064-3.427h7.813c-0.304,2.271-0.981,4.271-2.058,6.011
	c-1.071,1.733-2.418,3.184-4.048,4.346c-1.629,1.158-3.502,2.035-5.62,2.637C59.456,94.092,57.218,94.388,54.862,94.388z
	 M66.148,67.746c-0.644-4.182-2.028-7.295-4.16-9.344c-2.126-2.053-4.803-3.072-8.024-3.072c-1.504,0-2.91,0.244-4.222,0.742
	c-1.313,0.494-2.491,1.25-3.55,2.266c-1.051,1.011-1.944,2.308-2.671,3.879c-0.73,1.574-1.248,3.414-1.55,5.529H66.148
	L66.148,67.746z"/>
<path display="none" fill="#FFFFFF" d="M90.415,50.382v31.724c-2.288,2.883-4.875,5.528-7.729,7.848V50.382H90.415z"/>
<path display="none" fill="#FFFFFF" d="M27.88,82.437c0,2.764-2.155,5.006-4.821,5.006c-2.665,0-4.822-2.242-4.822-5.006
	c0-2.76,2.157-5.006,4.822-5.006S27.88,79.677,27.88,82.437z"/>
<path display="none" fill="#FFFFFF" d="M91.478,37.699c0,2.764-2.157,5.006-4.822,5.006c-2.668,0-4.824-2.242-4.824-5.006
	c0-2.765,2.156-5.006,4.824-5.006C89.321,32.694,91.478,34.935,91.478,37.699z"/>
<g display="none">
	<path display="inline" fill="#4EA7BA" stroke="#4EA7BA" stroke-width="0.7" stroke-miterlimit="10" d="M129.845,64.76
		c0,0.268-0.069,0.504-0.203,0.735c-0.136,0.221-0.315,0.402-0.54,0.535c-0.229,0.127-0.468,0.197-0.743,0.197
		c-0.259,0-0.502-0.07-0.728-0.197c-0.224-0.133-0.399-0.314-0.532-0.535c-0.128-0.231-0.195-0.469-0.195-0.735
		c0-0.268,0.067-0.519,0.195-0.736c0.133-0.232,0.312-0.412,0.532-0.535c0.226-0.133,0.469-0.203,0.728-0.203
		c0.197,0,0.39,0.035,0.572,0.117c0.195,0.086,0.357,0.186,0.496,0.33c0.131,0.139,0.233,0.297,0.302,0.471
		C129.813,64.386,129.845,64.568,129.845,64.76z M129.439,85.056h-2.15V70.295h2.15V85.056z"/>
	<path display="inline" fill="#4EA7BA" stroke="#4EA7BA" stroke-width="0.7" stroke-miterlimit="10" d="M159.958,85.056h-2.146
		v-9.082c0-0.656-0.096-1.228-0.268-1.736c-0.181-0.512-0.414-0.924-0.713-1.23c-0.293-0.313-0.666-0.553-1.105-0.721
		c-0.44-0.162-0.957-0.242-1.543-0.242c-1.131,0-2.027,0.336-2.686,1.019c-0.656,0.674-0.98,1.646-0.98,2.914v9.082h-2.157V70.295
		h2.157v1.625c0.535-0.598,1.146-1.051,1.832-1.354c0.68-0.289,1.453-0.439,2.291-0.439c1.605,0,2.861,0.459,3.787,1.377
		c1.021,0.992,1.531,2.361,1.531,4.109V85.056L159.958,85.056z"/>
	<path display="inline" fill="#4EA7BA" stroke="#4EA7BA" stroke-width="0.7" stroke-miterlimit="10" d="M184.364,85.056h-1.526
		c-1.205,0-2.14-0.373-2.799-1.115c-0.648-0.756-0.976-1.688-0.976-2.834V72.06h-1.854V70.4h1.854v-4.623h2.146V70.4h3.155v1.66
		h-3.155v8.987c0,1.437,0.686,2.148,2.026,2.148h1.129V85.056z"/>
	<path display="inline" fill="#4EA7BA" stroke="#4EA7BA" stroke-width="0.7" stroke-miterlimit="10" d="M213.448,78.261h-9.959
		c0,1.618,0.388,2.875,1.144,3.758c0.76,0.889,1.826,1.324,3.215,1.324c0.818,0,1.521-0.123,2.092-0.38
		c0.576-0.256,1.172-0.686,1.791-1.289l1.461,1.289c-0.799,0.798-1.6,1.384-2.393,1.736c-0.793,0.354-1.803,0.535-3.01,0.535
		c-1.306,0-2.438-0.273-3.406-0.812c-0.965-0.53-1.719-1.368-2.246-2.508c-0.525-1.127-0.795-2.543-0.795-4.244
		c0-1.188,0.145-2.254,0.42-3.18c0.275-0.922,0.686-1.711,1.203-2.375c0.524-0.645,1.176-1.143,1.924-1.484
		c0.752-0.35,1.59-0.512,2.521-0.512c1.252,0,2.321,0.297,3.247,0.869c0.919,0.582,1.611,1.412,2.082,2.498
		c0.478,1.094,0.712,2.354,0.712,3.785v0.985h-0.003V78.261z M211.3,76.64c-0.049-1.039-0.195-1.853-0.451-2.455
		c-0.274-0.681-0.725-1.222-1.361-1.625c-0.622-0.406-1.317-0.609-2.077-0.609c-0.771,0-1.474,0.197-2.082,0.592
		c-0.632,0.406-1.084,0.947-1.379,1.646c-0.228,0.586-0.388,1.401-0.457,2.453L211.3,76.64L211.3,76.64z"/>
	<path display="inline" fill="#4EA7BA" stroke="#4EA7BA" stroke-width="0.7" stroke-miterlimit="10" d="M241.366,71.502l-1.58,1.627
		c-0.396-0.407-0.789-0.686-1.164-0.848c-0.377-0.164-0.845-0.238-1.396-0.238c-0.703,0-1.326,0.174-1.856,0.519
		c-0.537,0.348-0.955,0.821-1.24,1.41c-0.291,0.6-0.437,1.276-0.437,2.036v9.05h-2.147V70.295h2.147v1.8
		c0.418-0.607,0.986-1.093,1.738-1.449c0.744-0.351,1.549-0.519,2.394-0.519C239.26,70.127,240.442,70.584,241.366,71.502z"/>
	<path display="inline" fill="#4EA7BA" stroke="#4EA7BA" stroke-width="0.7" stroke-miterlimit="10" d="M268.171,85.056h-2.146
		V83.65c-0.602,0.604-1.211,1.01-1.854,1.242c-0.631,0.231-1.437,0.344-2.422,0.344c-0.992,0-1.83-0.1-2.486-0.318
		c-0.668-0.209-1.227-0.553-1.693-1.026c-0.733-0.742-1.11-1.748-1.11-3.009c0-1.309,0.446-2.354,1.332-3.104
		c0.889-0.754,2.146-1.135,3.787-1.135h4.446V75.22c0-1.104-0.299-1.916-0.885-2.443c-0.592-0.529-1.557-0.797-2.897-0.797
		c-0.931,0-1.664,0.129-2.216,0.379c-0.557,0.25-1.051,0.684-1.496,1.305l-1.497-1.34c0.428-0.541,0.889-0.988,1.399-1.313
		c0.502-0.324,1.063-0.558,1.688-0.689c0.621-0.127,1.336-0.189,2.151-0.189c1.011,0,1.89,0.104,2.621,0.313
		c0.729,0.203,1.336,0.518,1.824,0.936c0.494,0.418,0.857,0.923,1.096,1.521c0.238,0.598,0.355,1.316,0.355,2.146L268.171,85.056
		L268.171,85.056z M266.022,79.847v-1.586h-4.146c-2.195,0-3.295,0.864-3.295,2.606c0,0.842,0.272,1.469,0.823,1.887
		c0.543,0.406,1.396,0.615,2.556,0.615c0.75,0,1.375-0.057,1.896-0.186c0.515-0.115,0.984-0.386,1.41-0.783
		C265.77,81.92,266.022,81.078,266.022,79.847z"/>
	<path display="inline" fill="#4EA7BA" stroke="#4EA7BA" stroke-width="0.7" stroke-miterlimit="10" d="M297.49,83.052
		c-0.737,0.801-1.473,1.364-2.209,1.688c-0.731,0.326-1.608,0.494-2.645,0.494c-0.916,0-1.781-0.158-2.586-0.488
		c-0.807-0.319-1.506-0.795-2.09-1.428c-0.586-0.627-1.045-1.418-1.359-2.369c-0.334-0.953-0.5-2.039-0.5-3.275
		c0-1.62,0.287-2.991,0.853-4.135c0.563-1.149,1.34-2,2.33-2.567c0.983-0.568,2.104-0.849,3.354-0.849
		c1.041,0,1.932,0.162,2.658,0.488c0.725,0.324,1.457,0.895,2.194,1.707l-1.461,1.375c-0.549-0.605-1.063-1.033-1.563-1.289
		c-0.5-0.244-1.109-0.365-1.83-0.365c-1.498,0-2.635,0.558-3.414,1.685c-0.344,0.477-0.598,1.026-0.734,1.643
		c-0.155,0.621-0.233,1.396-0.233,2.309c0,0.902,0.078,1.681,0.233,2.294c0.14,0.62,0.394,1.182,0.734,1.68
		c0.793,1.106,1.928,1.674,3.414,1.674c0.701,0,1.301-0.135,1.795-0.379c0.484-0.248,1.027-0.687,1.601-1.295L297.49,83.052z"/>
	<path display="inline" fill="#4EA7BA" stroke="#4EA7BA" stroke-width="0.7" stroke-miterlimit="10" d="M320.764,85.056h-1.519
		c-1.213,0-2.146-0.373-2.799-1.115c-0.653-0.756-0.979-1.688-0.979-2.834V72.06h-1.855V70.4h1.855v-4.623h2.149V70.4h3.144v1.66
		h-3.144v8.987c0,1.437,0.666,2.148,2.017,2.148h1.127L320.764,85.056L320.764,85.056z"/>
	<path display="inline" fill="#4EA7BA" stroke="#4EA7BA" stroke-width="0.7" stroke-miterlimit="10" d="M341.135,64.76
		c0,0.268-0.07,0.504-0.207,0.735c-0.133,0.221-0.316,0.402-0.539,0.535c-0.229,0.127-0.467,0.197-0.74,0.197
		c-0.262,0-0.512-0.07-0.729-0.197c-0.232-0.133-0.398-0.314-0.531-0.535c-0.131-0.231-0.197-0.469-0.197-0.735
		c0-0.268,0.066-0.519,0.197-0.736c0.133-0.232,0.299-0.412,0.531-0.535c0.217-0.133,0.467-0.203,0.729-0.203
		c0.191,0,0.387,0.035,0.574,0.117c0.184,0.086,0.354,0.186,0.49,0.33c0.131,0.139,0.235,0.297,0.313,0.471
		C341.093,64.386,341.135,64.568,341.135,64.76z M340.725,85.056h-2.154V70.295h2.154V85.056z"/>
	<path display="inline" fill="#4EA7BA" stroke="#4EA7BA" stroke-width="0.7" stroke-miterlimit="10" d="M370.014,70.295
		l-5.437,14.763h-1.918l-5.387-14.763h2.334l4.021,11.847l4.047-11.847H370.014z"/>
	<path display="inline" fill="#4EA7BA" stroke="#4EA7BA" stroke-width="0.7" stroke-miterlimit="10" d="M397.835,78.261h-9.968
		c0,1.618,0.384,2.875,1.142,3.758c0.762,0.889,1.83,1.324,3.215,1.324c0.82,0,1.521-0.123,2.09-0.38
		c0.58-0.256,1.18-0.686,1.789-1.289l1.469,1.289c-0.805,0.798-1.604,1.384-2.396,1.736c-0.792,0.354-1.804,0.535-3.006,0.535
		c-1.306,0-2.435-0.273-3.404-0.812c-0.976-0.53-1.726-1.368-2.25-2.508c-0.523-1.127-0.787-2.543-0.787-4.244
		c0-1.188,0.137-2.254,0.418-3.18c0.271-0.922,0.68-1.711,1.211-2.375c0.516-0.645,1.158-1.143,1.91-1.484
		c0.748-0.35,1.59-0.512,2.52-0.512c1.248,0,2.328,0.297,3.252,0.869c0.914,0.582,1.609,1.412,2.089,2.498
		c0.473,1.094,0.713,2.354,0.713,3.785v0.983h-0.004v0.005H397.835z M395.678,76.64c-0.051-1.039-0.195-1.853-0.457-2.455
		c-0.269-0.681-0.719-1.222-1.355-1.625c-0.619-0.406-1.317-0.609-2.082-0.609c-0.771,0-1.467,0.197-2.084,0.592
		c-0.619,0.406-1.078,0.947-1.371,1.646c-0.231,0.586-0.387,1.401-0.459,2.453L395.678,76.64L395.678,76.64z"/>
</g>
<g display="none">
	<g display="inline">
		<path fill="#385E6A" stroke="#385E6A" stroke-width="0.7" stroke-miterlimit="10" d="M148.48,43.221h-18.694
			c0,3.414,0.752,6.032,2.25,7.862c1.494,1.828,3.66,2.734,6.501,2.734c1.559,0,2.896-0.244,4.001-0.73
			c1.104-0.493,2.253-1.323,3.434-2.51l2.129,1.688c-1.434,1.438-2.881,2.485-4.338,3.139c-1.472,0.656-3.257,0.975-5.375,0.975
			c-2.476,0-4.552-0.516-6.256-1.565c-1.693-1.039-2.979-2.59-3.859-4.646c-0.88-2.05-1.317-4.576-1.317-7.571
			c0-2.185,0.247-4.123,0.736-5.818c0.488-1.695,1.188-3.124,2.104-4.291c0.925-1.161,2.058-2.067,3.425-2.7
			c1.354-0.633,2.858-0.946,4.512-0.946c1.688,0,3.184,0.29,4.495,0.871c1.298,0.58,2.425,1.439,3.371,2.566
			c0.941,1.138,1.656,2.515,2.146,4.129c0.489,1.626,0.736,3.467,0.736,5.527L148.48,43.221L148.48,43.221z M145.618,40.933
			c-0.057-1.329-0.141-2.287-0.244-2.873c-0.104-0.595-0.34-1.324-0.684-2.195c-0.568-1.388-1.491-2.485-2.777-3.299
			c-1.295-0.818-2.689-1.227-4.201-1.227c-1.539,0-2.938,0.406-4.188,1.221c-1.257,0.802-2.191,1.903-2.78,3.305
			c-0.344,0.871-0.578,1.638-0.69,2.288c-0.129,0.649-0.213,1.579-0.265,2.78H145.618z"/>
		<path fill="#385E6A" stroke="#385E6A" stroke-width="0.7" stroke-miterlimit="10" d="M181.28,56.06h-3.461l-7.084-11.341
			L163.54,56.06h-3.457l9.102-13.739l-8.721-13.164h3.463l6.811,10.824l6.701-10.824h3.455l-8.717,13.164L181.28,56.06z"/>
		<path fill="#385E6A" stroke="#385E6A" stroke-width="0.7" stroke-miterlimit="10" d="M204.106,56.06h-2.444
			c-1.354,0-2.524-0.304-3.5-0.904c-0.979-0.6-1.715-1.43-2.221-2.479c-0.491-1.048-0.741-2.271-0.741-3.647V31.282h-3.677v-2.125
			h3.677v-8.606h2.829v8.606h6.079v2.125h-6.079v17.799c0,2.979,1.377,4.472,4.122,4.472h1.957v2.508H204.106z"/>
		<path fill="#385E6A" stroke="#385E6A" stroke-width="0.7" stroke-miterlimit="10" d="M238.227,43.221h-18.699
			c0,3.414,0.752,6.032,2.25,7.862c1.496,1.828,3.664,2.734,6.498,2.734c1.563,0,2.898-0.244,4.002-0.73
			c1.111-0.493,2.257-1.323,3.438-2.51l2.125,1.688c-1.432,1.438-2.877,2.485-4.338,3.139c-1.463,0.656-3.252,0.975-5.371,0.975
			c-2.478,0-4.553-0.516-6.252-1.565c-1.697-1.039-2.982-2.59-3.865-4.646c-0.883-2.05-1.315-4.576-1.315-7.571
			c0-2.185,0.247-4.123,0.735-5.818c0.484-1.695,1.185-3.124,2.104-4.291c0.922-1.161,2.053-2.067,3.422-2.7
			c1.354-0.633,2.858-0.946,4.52-0.946c1.681,0,3.181,0.29,4.488,0.871c1.303,0.58,2.428,1.439,3.371,2.566
			c0.945,1.138,1.662,2.515,2.147,4.129c0.494,1.626,0.742,3.467,0.742,5.527L238.227,43.221L238.227,43.221z M235.358,40.933
			c-0.051-1.329-0.133-2.287-0.244-2.873c-0.106-0.595-0.336-1.324-0.682-2.195c-0.565-1.388-1.49-2.485-2.774-3.299
			c-1.296-0.818-2.691-1.227-4.205-1.227c-1.535,0-2.937,0.406-4.188,1.221c-1.254,0.802-2.188,1.903-2.781,3.305
			c-0.342,0.871-0.573,1.638-0.688,2.288c-0.129,0.649-0.213,1.579-0.269,2.78H235.358z"/>
		<path fill="#385E6A" stroke="#385E6A" stroke-width="0.7" stroke-miterlimit="10" d="M273.694,56.06h-2.838V39.382
			c0-2.602-0.641-4.593-1.903-5.975c-1.277-1.383-3.104-2.067-5.511-2.067c-1.598,0-2.965,0.313-4.102,0.937
			c-1.127,0.633-2.002,1.551-2.604,2.759c-0.596,1.207-0.896,2.659-0.896,4.349v16.68h-2.834V29.157h2.834v3.188
			c2.02-2.341,4.66-3.508,7.934-3.508c3.015,0,5.396,0.85,7.142,2.563c1.854,1.76,2.78,4.251,2.78,7.462L273.694,56.06
			L273.694,56.06z"/>
		<path fill="#385E6A" stroke="#385E6A" stroke-width="0.7" stroke-miterlimit="10" d="M308.811,48.396
			c0,1.619-0.441,3.029-1.324,4.245c-0.883,1.2-2.141,2.131-3.764,2.774c-1.625,0.646-3.521,0.963-5.691,0.963
			c-4.584,0-8.223-1.274-10.92-3.838l1.979-1.963c2.09,2.195,5.041,3.299,8.842,3.299c2.623,0,4.627-0.459,6.012-1.383
			c1.396-0.91,2.088-2.282,2.088-4.099c0-1.376-0.416-2.435-1.258-3.159c-0.834-0.728-2.135-1.173-3.889-1.329l-4.479-0.413
			c-5.403-0.437-8.114-2.781-8.114-7.032c0-1.521,0.399-2.861,1.188-4.019c0.789-1.149,1.92-2.044,3.367-2.678
			c1.453-0.62,3.174-0.93,5.135-0.93c1.887,0,3.648,0.238,5.264,0.755c1.619,0.481,3.015,1.187,4.181,2.073l-1.914,1.91
			c-2.068-1.521-4.574-2.294-7.517-2.294c-2.219,0-3.913,0.459-5.096,1.365c-1.178,0.917-1.77,2.188-1.77,3.813
			c0,1.417,0.438,2.479,1.315,3.2c0.888,0.726,2.271,1.161,4.158,1.324l4.33,0.383c2.506,0.221,4.451,0.836,5.813,1.854
			C308.119,44.239,308.811,45.963,308.811,48.396z"/>
		<path fill="#385E6A" stroke="#385E6A" stroke-width="0.7" stroke-miterlimit="10" d="M326.462,18.06
			c0,0.58-0.197,1.079-0.601,1.51c-0.399,0.418-0.895,0.633-1.477,0.633c-0.578,0-1.076-0.215-1.498-0.633
			c-0.418-0.431-0.623-0.911-0.623-1.457c0-0.587,0.203-1.08,0.608-1.492c0.41-0.413,0.896-0.622,1.462-0.622
			c0.594,0,1.102,0.209,1.51,0.622C326.259,17.032,326.462,17.507,326.462,18.06z M325.776,56.06h-2.83V29.157h2.83V56.06z"/>
		<path fill="#385E6A" stroke="#385E6A" stroke-width="0.7" stroke-miterlimit="10" d="M362.287,42.594
			c0,1.435-0.098,2.8-0.272,4.095c-0.187,1.282-0.519,2.509-1.008,3.67c-0.486,1.161-1.181,2.194-2.066,3.084
			c-1.998,1.961-4.479,2.938-7.457,2.938c-2.996,0-5.484-0.977-7.484-2.938c-0.887-0.891-1.579-1.924-2.065-3.067
			c-0.49-1.154-0.82-2.375-1.008-3.642c-0.185-1.268-0.271-2.647-0.271-4.141c0-2.254,0.232-4.293,0.705-6.134
			c0.479-1.835,1.355-3.396,2.646-4.689c1.957-1.957,4.45-2.935,7.481-2.935c3.017,0,5.494,0.978,7.457,2.935
			c0.889,0.894,1.58,1.922,2.066,3.089c0.491,1.161,0.821,2.387,1.008,3.658C362.19,39.801,362.287,41.16,362.287,42.594z
			 M359.451,42.594c0-2.072-0.147-3.833-0.453-5.29c-0.297-1.445-0.944-2.679-1.944-3.672c-1.496-1.524-3.354-2.293-5.57-2.293
			c-2.24,0-4.102,0.769-5.598,2.293c-0.996,0.993-1.646,2.248-1.947,3.74c-0.307,1.504-0.453,3.234-0.453,5.222
			c0,1.963,0.146,3.698,0.453,5.216c0.301,1.521,0.951,2.779,1.947,3.773c1.528,1.533,3.395,2.293,5.598,2.293
			c2.182,0,4.045-0.76,5.57-2.293c1-0.994,1.647-2.225,1.944-3.688C359.303,46.439,359.451,44.662,359.451,42.594z"/>
		<path fill="#385E6A" stroke="#385E6A" stroke-width="0.7" stroke-miterlimit="10" d="M397.813,56.06h-2.838V39.382
			c0-2.602-0.633-4.593-1.906-5.975c-1.27-1.383-3.104-2.067-5.496-2.067c-1.604,0-2.971,0.313-4.104,0.937
			c-1.146,0.633-2.008,1.551-2.607,2.759c-0.596,1.207-0.895,2.659-0.895,4.349v16.68h-2.838V29.157h2.838v3.188
			c2.018-2.341,4.653-3.508,7.93-3.508c3.014,0,5.391,0.85,7.139,2.563c1.855,1.76,2.779,4.251,2.779,7.462L397.813,56.06
			L397.813,56.06z"/>
	</g>
</g>
<g>
	<path fill="#3178B2" d="M104.302,47.733c0,10.572-3.643,20.294-9.751,27.972c-2.027,2.553-4.329,4.881-6.859,6.939
		c-7.747,6.307-17.624,10.088-28.389,10.088c-24.851,0-44.995-20.151-44.995-44.999S34.453,2.737,59.303,2.737
		C84.152,2.737,104.302,22.885,104.302,47.733z"/>
	<g>
		<g>
			<path fill="#FFFFFF" d="M63.006,86.585c-2.777,0-5.305-0.445-7.584-1.341c-2.282-0.891-4.24-2.188-5.876-3.873
				c-1.634-1.693-2.901-3.777-3.79-6.245c-0.896-2.47-1.343-5.307-1.343-8.494c0-3.12,0.44-5.913,1.313-8.38
				c0.872-2.474,2.1-4.563,3.677-6.273c1.579-1.71,3.449-3.01,5.614-3.907c2.167-0.891,4.562-1.34,7.185-1.34
				c2.736,0,5.207,0.449,7.413,1.34c2.203,0.892,4.085,2.186,5.644,3.876c1.556,1.686,2.755,3.77,3.59,6.231
				c0.837,2.471,1.256,5.281,1.256,8.435v1.65H51.346c0.153,2.255,0.554,4.198,1.203,5.839c0.651,1.641,1.494,2.995,2.523,4.066
				c1.033,1.064,2.225,1.85,3.585,2.34c1.357,0.499,2.796,0.749,4.327,0.749c1.143,0,2.272-0.144,3.38-0.433
				c1.108-0.289,2.103-0.725,2.979-1.318c0.88-0.597,1.593-1.333,2.151-2.213c0.553-0.885,0.869-1.896,0.944-3.042h6.935
				c-0.267,2.018-0.874,3.797-1.828,5.339c-0.946,1.542-2.146,2.823-3.592,3.856c-1.446,1.028-3.104,1.803-4.985,2.335
				C67.085,86.314,65.097,86.585,63.006,86.585z M73.024,62.935c-0.572-3.71-1.802-6.477-3.689-8.295
				c-1.888-1.816-4.264-2.727-7.124-2.727c-1.335,0-2.584,0.223-3.749,0.658c-1.165,0.442-2.213,1.112-3.148,2.012
				c-0.936,0.897-1.728,2.049-2.373,3.444c-0.651,1.399-1.112,3.033-1.374,4.907H73.024z"/>
			<path fill="#FFFFFF" d="M87.692,47.534v35.11c2.53-2.059,4.832-4.387,6.859-6.939V47.534H87.692z"/>
		</g>
	</g>
	<path fill="#FFFFFF" d="M39.061,75.98c0,2.447-1.917,4.438-4.28,4.438c-2.366,0-4.285-1.99-4.285-4.438
		c0-2.458,1.919-4.447,4.285-4.447C37.144,71.533,39.061,73.522,39.061,75.98z"/>
	<path fill="#FFFFFF" d="M95.507,36.269c0,2.455-1.921,4.442-4.281,4.442c-2.37,0-4.283-1.987-4.283-4.442
		c0-2.453,1.913-4.439,4.283-4.439C93.586,31.83,95.507,33.817,95.507,36.269z"/>
</g>
<g>
	<g>
		<path fill="#3B99D0" d="M128.738,60.223c0,0.234-0.059,0.45-0.181,0.647c-0.122,0.195-0.278,0.352-0.475,0.469
			c-0.196,0.115-0.414,0.177-0.652,0.177c-0.233,0-0.442-0.062-0.643-0.177c-0.196-0.117-0.354-0.273-0.472-0.469
			c-0.116-0.197-0.171-0.413-0.171-0.647c0-0.239,0.055-0.459,0.171-0.661c0.118-0.19,0.276-0.351,0.472-0.469
			c0.201-0.114,0.41-0.173,0.643-0.173c0.166,0,0.34,0.035,0.507,0.105c0.164,0.067,0.307,0.164,0.428,0.289
			c0.123,0.129,0.21,0.263,0.271,0.419C128.706,59.893,128.738,60.053,128.738,60.223z M128.374,78.1h-1.896V65.102h1.896V78.1z"/>
		<path fill="#3B99D0" d="M155.261,78.1h-1.897v-8.005c0-0.577-0.078-1.079-0.232-1.529c-0.153-0.444-0.364-0.806-0.629-1.082
			c-0.26-0.275-0.583-0.481-0.974-0.631c-0.388-0.146-0.839-0.22-1.355-0.22c-1.002,0-1.79,0.302-2.369,0.897
			c-0.577,0.598-0.861,1.452-0.861,2.564V78.1h-1.896V65.102h1.896v1.427c0.47-0.533,1.007-0.926,1.607-1.194
			c0.603-0.259,1.281-0.391,2.028-0.391c1.407,0,2.521,0.404,3.326,1.213c0.904,0.876,1.357,2.08,1.357,3.622V78.1z"/>
		<path fill="#3B99D0" d="M176.75,78.1h-1.34c-1.063,0-1.888-0.333-2.468-0.985c-0.571-0.658-0.86-1.49-0.86-2.496v-7.973h-1.635
			v-1.457h1.635v-4.074h1.896v4.074h2.771v1.457h-2.771v7.923c0,1.261,0.59,1.892,1.78,1.892h0.992V78.1z"/>
		<path fill="#3B99D0" d="M202.371,72.114h-8.768c0,1.43,0.337,2.525,1.002,3.31c0.666,0.776,1.607,1.168,2.829,1.168
			c0.722,0,1.338-0.112,1.846-0.338c0.506-0.217,1.034-0.598,1.574-1.136l1.291,1.136c-0.709,0.707-1.41,1.217-2.112,1.532
			c-0.702,0.314-1.583,0.468-2.65,0.468c-1.145,0-2.144-0.232-3-0.709c-0.853-0.476-1.513-1.204-1.977-2.204
			c-0.465-0.999-0.698-2.247-0.698-3.74c0-1.052,0.122-1.983,0.37-2.801c0.246-0.816,0.6-1.514,1.066-2.087
			c0.461-0.578,1.026-1.017,1.687-1.317s1.399-0.451,2.219-0.451c1.099,0,2.055,0.257,2.861,0.771
			c0.812,0.509,1.42,1.243,1.839,2.203c0.415,0.953,0.623,2.063,0.623,3.334V72.114z M200.477,70.684
			c-0.042-0.91-0.172-1.634-0.401-2.166c-0.238-0.598-0.637-1.072-1.193-1.424c-0.55-0.356-1.165-0.538-1.834-0.538
			c-0.681,0-1.291,0.174-1.837,0.524c-0.544,0.351-0.95,0.824-1.206,1.438c-0.208,0.524-0.347,1.245-0.402,2.166H200.477z"/>
		<path fill="#3B99D0" d="M226.963,66.157l-1.395,1.433c-0.354-0.352-0.694-0.601-1.025-0.739c-0.333-0.146-0.739-0.217-1.228-0.217
			c-0.624,0-1.171,0.153-1.643,0.461c-0.475,0.301-0.833,0.718-1.086,1.242c-0.256,0.522-0.382,1.122-0.382,1.793V78.1h-1.896
			V65.102h1.896v1.579c0.358-0.537,0.87-0.967,1.524-1.274c0.66-0.305,1.366-0.463,2.111-0.463
			C225.106,64.944,226.149,65.348,226.963,66.157z"/>
		<path fill="#3B99D0" d="M250.57,78.1h-1.893v-1.238c-0.526,0.527-1.073,0.888-1.63,1.087c-0.559,0.204-1.266,0.305-2.129,0.305
			c-0.88,0-1.615-0.093-2.198-0.276s-1.075-0.489-1.484-0.908c-0.651-0.66-0.98-1.536-0.98-2.646c0-1.156,0.388-2.073,1.17-2.741
			c0.773-0.668,1.888-0.997,3.336-0.997h3.916v-1.25c0-0.975-0.26-1.693-0.78-2.153c-0.518-0.468-1.366-0.701-2.549-0.701
			c-0.818,0-1.467,0.115-1.953,0.329c-0.486,0.224-0.927,0.604-1.32,1.159l-1.314-1.189c0.375-0.479,0.778-0.866,1.228-1.15
			c0.445-0.291,0.947-0.49,1.489-0.608c0.541-0.114,1.181-0.176,1.893-0.176c0.894,0,1.666,0.094,2.311,0.28
			c0.646,0.183,1.181,0.458,1.611,0.821c0.436,0.368,0.757,0.815,0.962,1.339c0.21,0.533,0.316,1.163,0.316,1.895V78.1z
			 M248.677,73.517v-1.403h-3.651c-1.933,0-2.899,0.767-2.899,2.29c0,0.744,0.24,1.296,0.722,1.665
			c0.48,0.366,1.231,0.551,2.256,0.551c0.654,0,1.207-0.059,1.661-0.163c0.461-0.109,0.875-0.342,1.254-0.702
			C248.457,75.334,248.677,74.586,248.677,73.517z"/>
		<path fill="#3B99D0" d="M276.398,76.336c-0.655,0.7-1.3,1.196-1.948,1.485c-0.645,0.286-1.417,0.433-2.333,0.433
			c-0.813,0-1.569-0.142-2.274-0.427c-0.708-0.282-1.325-0.699-1.843-1.259c-0.512-0.552-0.92-1.248-1.206-2.084
			c-0.282-0.839-0.431-1.802-0.431-2.884c0-1.43,0.251-2.643,0.747-3.652c0.501-1.002,1.183-1.757,2.056-2.26
			c0.859-0.495,1.852-0.744,2.951-0.744c0.921,0,1.698,0.145,2.343,0.433c0.639,0.29,1.283,0.788,1.938,1.502l-1.294,1.213
			c-0.476-0.537-0.935-0.908-1.371-1.13c-0.45-0.213-0.981-0.328-1.616-0.328c-1.319,0-2.322,0.496-3.013,1.483
			c-0.29,0.422-0.51,0.904-0.649,1.452c-0.127,0.545-0.198,1.222-0.198,2.031c0,0.801,0.071,1.467,0.198,2.016
			c0.14,0.547,0.359,1.037,0.649,1.479c0.701,0.977,1.698,1.472,3.013,1.472c0.619,0,1.146-0.109,1.576-0.331
			c0.434-0.219,0.905-0.601,1.411-1.141L276.398,76.336z"/>
		<path fill="#3B99D0" d="M296.895,78.1h-1.345c-1.059,0-1.882-0.333-2.46-0.985c-0.577-0.658-0.859-1.49-0.859-2.496v-7.973h-1.642
			v-1.457h1.642v-4.074h1.897v4.074h2.767v1.457h-2.767v7.923c0,1.261,0.589,1.892,1.771,1.892h0.995V78.1z"/>
		<path fill="#3B99D0" d="M314.832,60.223c0,0.234-0.062,0.45-0.184,0.647c-0.118,0.195-0.272,0.352-0.477,0.469
			c-0.188,0.115-0.414,0.177-0.649,0.177c-0.23,0-0.444-0.062-0.644-0.177c-0.195-0.117-0.354-0.273-0.472-0.469
			c-0.113-0.197-0.168-0.413-0.168-0.647c0-0.239,0.055-0.459,0.168-0.661c0.118-0.19,0.276-0.351,0.472-0.469
			c0.199-0.114,0.413-0.173,0.644-0.173c0.175,0,0.333,0.035,0.506,0.105c0.165,0.067,0.307,0.164,0.43,0.289
			c0.117,0.129,0.211,0.263,0.282,0.419C314.802,59.893,314.832,60.053,314.832,60.223z M314.474,78.1h-1.897V65.102h1.897V78.1z"/>
		<path fill="#3B99D0" d="M340.27,65.102L335.484,78.1h-1.688l-4.746-12.998h2.052l3.544,10.431l3.56-10.431H340.27z"/>
		<path fill="#3B99D0" d="M364.769,72.114h-8.771c0,1.43,0.331,2.525,0.997,3.31c0.665,0.776,1.61,1.168,2.834,1.168
			c0.72,0,1.339-0.112,1.846-0.338c0.5-0.217,1.033-0.598,1.569-1.136l1.289,1.136c-0.701,0.707-1.406,1.217-2.103,1.532
			c-0.706,0.314-1.59,0.468-2.654,0.468c-1.145,0-2.138-0.232-2.997-0.709c-0.858-0.476-1.518-1.204-1.979-2.204
			c-0.461-0.999-0.701-2.247-0.701-3.74c0-1.052,0.123-1.983,0.369-2.801c0.245-0.816,0.603-1.514,1.067-2.087
			c0.462-0.578,1.028-1.017,1.694-1.317c0.654-0.301,1.391-0.451,2.213-0.451c1.101,0,2.058,0.257,2.86,0.771
			c0.813,0.509,1.422,1.243,1.836,2.203c0.424,0.953,0.629,2.063,0.629,3.334V72.114z M362.877,70.684
			c-0.047-0.91-0.181-1.634-0.404-2.166c-0.241-0.598-0.64-1.072-1.196-1.424c-0.554-0.356-1.162-0.538-1.833-0.538
			c-0.679,0-1.293,0.174-1.835,0.524c-0.553,0.351-0.951,0.824-1.206,1.438c-0.21,0.524-0.343,1.245-0.404,2.166H362.877z"/>
	</g>
	<g>
		<path fill="#1C4E78" d="M145.109,41.2h-16.468c0,3.007,0.66,5.313,1.984,6.924c1.319,1.614,3.225,2.411,5.727,2.411
			c1.371,0,2.548-0.209,3.525-0.644c0.977-0.432,1.984-1.174,3.023-2.212l1.872,1.492c-1.262,1.263-2.536,2.183-3.821,2.76
			c-1.289,0.575-2.86,0.862-4.734,0.862c-2.174,0-4.01-0.457-5.503-1.38c-1.496-0.918-2.632-2.284-3.402-4.092
			c-0.78-1.813-1.164-4.038-1.164-6.677c0-1.918,0.21-3.629,0.648-5.127c0.425-1.494,1.046-2.757,1.852-3.78
			c0.813-1.026,1.814-1.815,3.009-2.375c1.202-0.561,2.526-0.844,3.982-0.844c1.488,0,2.806,0.261,3.957,0.774
			c1.148,0.506,2.14,1.269,2.977,2.266c0.826,1,1.458,2.214,1.89,3.639c0.436,1.424,0.646,3.046,0.646,4.871V41.2z M142.59,39.184
			c-0.053-1.173-0.123-2.015-0.217-2.539c-0.092-0.517-0.295-1.161-0.6-1.931c-0.497-1.217-1.314-2.181-2.446-2.905
			c-1.14-0.718-2.369-1.079-3.699-1.079c-1.36,0-2.594,0.355-3.698,1.067c-1.104,0.712-1.92,1.685-2.451,2.917
			c-0.306,0.77-0.507,1.44-0.61,2.021c-0.105,0.572-0.183,1.388-0.229,2.449H142.59z"/>
		<path fill="#1C4E78" d="M174.011,52.507h-3.045l-6.243-9.99l-6.343,9.99h-3.045l8.017-12.104l-7.68-11.595h3.047l6.004,9.533
			l5.905-9.533h3.052l-7.685,11.595L174.011,52.507z"/>
		<path fill="#1C4E78" d="M194.126,52.507h-2.155c-1.196,0-2.226-0.268-3.088-0.794c-0.86-0.527-1.508-1.256-1.953-2.184
			c-0.438-0.929-0.657-2-0.657-3.215V30.681h-3.24v-1.874h3.24v-7.582h2.5v7.582h5.353v1.874h-5.353v15.676
			c0,2.629,1.208,3.939,3.625,3.939h1.728V52.507z"/>
		<path fill="#1C4E78" d="M224.179,41.2H207.71c0,3.007,0.662,5.313,1.98,6.924c1.325,1.614,3.229,2.411,5.729,2.411
			c1.374,0,2.553-0.209,3.529-0.644c0.977-0.432,1.983-1.174,3.021-2.212l1.871,1.492c-1.261,1.263-2.533,2.183-3.819,2.76
			c-1.289,0.575-2.868,0.862-4.734,0.862c-2.176,0-4.01-0.457-5.509-1.38c-1.49-0.918-2.627-2.284-3.402-4.092
			c-0.779-1.813-1.163-4.038-1.163-6.677c0-1.918,0.216-3.629,0.648-5.127c0.431-1.494,1.051-2.757,1.856-3.78
			c0.811-1.026,1.814-1.815,3.009-2.375c1.203-0.561,2.533-0.844,3.982-0.844c1.488,0,2.808,0.261,3.958,0.774
			c1.147,0.506,2.14,1.269,2.976,2.266c0.826,1,1.457,2.214,1.893,3.639c0.43,1.424,0.644,3.046,0.644,4.871V41.2z M221.664,39.184
			c-0.054-1.173-0.127-2.015-0.221-2.539c-0.098-0.517-0.295-1.161-0.602-1.931c-0.495-1.217-1.314-2.181-2.446-2.905
			c-1.138-0.718-2.373-1.079-3.696-1.079c-1.361,0-2.596,0.355-3.7,1.067c-1.103,0.712-1.918,1.685-2.448,2.917
			c-0.306,0.77-0.509,1.44-0.61,2.021c-0.107,0.572-0.179,1.388-0.23,2.449H221.664z"/>
		<path fill="#1C4E78" d="M255.434,52.507h-2.49v-14.69c0-2.294-0.567-4.043-1.683-5.263c-1.126-1.215-2.743-1.823-4.849-1.823
			c-1.417,0-2.614,0.276-3.616,0.829c-1.003,0.552-1.77,1.36-2.297,2.422c-0.523,1.068-0.793,2.344-0.793,3.835v14.69h-2.49V28.807
			h2.49v2.813c1.775-2.066,4.107-3.102,6.986-3.102c2.66,0,4.762,0.754,6.291,2.26c1.632,1.55,2.45,3.747,2.45,6.58V52.507z"/>
		<path fill="#1C4E78" d="M286.376,45.76c0,1.427-0.39,2.667-1.166,3.73c-0.773,1.069-1.878,1.883-3.32,2.453
			c-1.427,0.566-3.099,0.851-5.006,0.851c-4.041,0-7.247-1.124-9.62-3.383l1.738-1.731c1.847,1.936,4.439,2.902,7.783,2.902
			c2.317,0,4.076-0.398,5.304-1.211c1.233-0.804,1.843-2.008,1.843-3.611c0-1.218-0.374-2.146-1.105-2.783
			c-0.742-0.642-1.888-1.035-3.437-1.178l-3.938-0.361c-4.768-0.38-7.155-2.447-7.155-6.191c0-1.347,0.357-2.526,1.048-3.544
			c0.695-1.015,1.688-1.795,2.967-2.354c1.284-0.555,2.792-0.829,4.521-0.829c1.673,0,3.218,0.225,4.644,0.664
			c1.428,0.436,2.649,1.049,3.678,1.832l-1.683,1.683c-1.82-1.343-4.029-2.016-6.623-2.016c-1.955,0-3.452,0.402-4.491,1.202
			c-1.038,0.799-1.56,1.92-1.56,3.363c0,1.244,0.389,2.184,1.161,2.816c0.783,0.636,2,1.02,3.667,1.168l3.816,0.332
			c2.209,0.192,3.912,0.734,5.119,1.637C285.767,42.095,286.376,43.614,286.376,45.76z"/>
		<path fill="#1C4E78" d="M301.929,19.029c0,0.514-0.18,0.954-0.528,1.327c-0.353,0.371-0.781,0.555-1.298,0.555
			c-0.507,0-0.951-0.184-1.325-0.555c-0.362-0.373-0.547-0.803-0.547-1.281c0-0.514,0.18-0.954,0.542-1.314
			c0.359-0.365,0.788-0.547,1.29-0.547c0.521,0,0.966,0.182,1.324,0.547C301.743,18.12,301.929,18.543,301.929,19.029z
			 M301.325,52.507h-2.491V28.807h2.491V52.507z"/>
		<path fill="#1C4E78" d="M333.495,40.645c0,1.263-0.077,2.467-0.241,3.604c-0.158,1.135-0.455,2.216-0.885,3.239
			c-0.43,1.029-1.043,1.931-1.826,2.716c-1.753,1.728-3.948,2.59-6.566,2.59c-2.64,0-4.839-0.862-6.598-2.59
			c-0.777-0.785-1.391-1.685-1.819-2.708c-0.432-1.011-0.728-2.08-0.886-3.201c-0.164-1.118-0.241-2.335-0.241-3.649
			c0-1.984,0.205-3.787,0.619-5.398c0.42-1.624,1.191-2.995,2.327-4.135c1.733-1.727,3.922-2.593,6.598-2.593
			c2.649,0,4.839,0.866,6.566,2.593c0.783,0.785,1.396,1.693,1.826,2.718c0.43,1.021,0.727,2.097,0.885,3.228
			C333.418,38.182,333.495,39.379,333.495,40.645z M330.998,40.645c0-1.826-0.133-3.375-0.398-4.654
			c-0.267-1.281-0.838-2.369-1.719-3.24c-1.313-1.35-2.945-2.02-4.904-2.02c-1.974,0-3.616,0.67-4.931,2.02
			c-0.88,0.872-1.453,1.977-1.724,3.296c-0.26,1.32-0.393,2.852-0.393,4.598c0,1.731,0.133,3.263,0.393,4.603
			c0.271,1.333,0.844,2.439,1.724,3.322c1.345,1.345,2.987,2.012,4.931,2.012c1.923,0,3.554-0.667,4.904-2.012
			c0.881-0.882,1.452-1.964,1.719-3.255C330.865,44.033,330.998,42.468,330.998,40.645z"/>
		<path fill="#1C4E78" d="M364.794,52.507h-2.501v-14.69c0-2.294-0.557-4.043-1.672-5.263c-1.126-1.215-2.736-1.823-4.854-1.823
			c-1.406,0-2.608,0.276-3.611,0.829c-1.002,0.552-1.765,1.36-2.29,2.422c-0.532,1.068-0.793,2.344-0.793,3.835v14.69h-2.502V28.807
			h2.502v2.813c1.773-2.066,4.102-3.102,6.986-3.102c2.654,0,4.755,0.754,6.29,2.26c1.63,1.55,2.444,3.747,2.444,6.58V52.507z"/>
	</g>
</g>
</svg>
